# xmcd
#
# Track frame offsets:
# 150
# 8221
# 13609
# 30685
# 47068
# 75239
# 104704
# 134358
# 166471
# 201512
# 239296
# 270008
# 296756
#
# Disc length: 4249 seconds
#
#
# Revision: 1
# Processed by: cddbd v1.5.2PL0 Copyright (c) Steve Scherf et al.
# Submitted via: FreeRIP 2.945 
#
DISCID=ac10970d
DTITLE=Ministério Apascentar de Nova Iguaçu - Olha pra Mim
DYEAR=2006
DGENRE=Gospel
TTITLE0=Cântico de Davi (abertura)
TTITLE1=Cântico de Davi
TTITLE2=Trazendo a Arca
TTITLE3=Em Toda Terra
TTITLE4=Correndo pros Teus Braços
TTITLE5=Olha pra Mim
TTITLE6=Me Arrebataste
TTITLE7=Tua Graça me Basta
TTITLE8=Lembra Senhor
TTITLE9=Senhor e Rei
TTITLE10=Ser Fiel
TTITLE11=O que Dizer
TTITLE12=O Chão vai Tremer
EXTD=
EXTT0=
EXTT1=
EXTT2=
EXTT3=
EXTT4=
EXTT5=
EXTT6=
EXTT7=
EXTT8=
EXTT9=
EXTT10=
EXTT11=
EXTT12=
PLAYORDER=
